<?xml version="1.0" standalone="no"?>
<!DOCTYPE svg PUBLIC "-//W3C//DTD SVG 20010904//EN"
 "http://www.w3.org/TR/2001/REC-SVG-20010904/DTD/svg10.dtd">
<svg version="1.0" xmlns="http://www.w3.org/2000/svg"
 width="1640.000000pt" height="664.000000pt" viewBox="0 0 1640.000000 664.000000"
 preserveAspectRatio="xMidYMid meet">

<g transform="translate(0.000000,664.000000) scale(0.100000,-0.100000)"
fill="#000000" stroke="none">
<path d="M2065 5304 c-526 -55 -967 -273 -1303 -644 -551 -609 -677 -1468
-323 -2206 32 -67 82 -157 110 -201 l51 -80 0 -215 c0 -203 1 -217 21 -242 33
-42 77 -36 131 17 24 24 62 60 85 81 l43 38 81 -66 c498 -407 1143 -552 1759
-396 364 92 650 257 925 534 322 325 512 720 566 1181 16 138 6 419 -20 561
-23 123 -58 253 -98 359 -35 94 -142 306 -192 380 l-41 60 0 222 0 222 -26 20
c-47 37 -69 28 -163 -63 l-86 -84 -85 69 c-282 232 -606 379 -960 435 -94 14
-397 26 -475 18z m422 -170 c386 -57 718 -217 1015 -490 73 -68 93 -69 158 -8
l50 47 0 -217 0 -216 -217 0 -217 0 36 38 c79 82 74 109 -41 207 -365 317
-852 454 -1316 370 -200 -36 -503 -159 -561 -228 -19 -23 -24 -37 -19 -56 19
-76 70 -79 197 -12 116 62 266 114 403 141 134 25 358 27 496 4 229 -39 496
-163 664 -308 l40 -34 -82 -85 c-91 -92 -103 -127 -63 -167 19 -19 33 -20 200
-20 l180 0 37 -57 c77 -120 137 -276 174 -453 29 -140 31 -380 5 -520 -110
-573 -543 -1018 -1101 -1134 -250 -52 -498 -38 -740 40 -151 49 -328 147 -448
247 l-48 40 81 82 c70 72 80 87 80 119 0 23 -7 43 -20 56 -19 19 -33 20 -199
20 l-180 0 -21 30 c-39 55 -129 255 -155 345 -41 144 -56 248 -56 405 1 254
46 436 168 671 52 101 54 108 42 135 -20 40 -60 61 -96 48 -56 -19 -179 -281
-228 -486 -85 -358 -49 -710 106 -1037 27 -57 49 -105 49 -107 0 -2 -49 -4
-110 -4 l-109 0 -23 -30 -22 -30 -34 72 c-91 195 -154 457 -168 698 -20 361
95 762 311 1085 290 434 726 711 1250 795 145 24 389 25 532 4z m1444 -1124
c345 -850 18 -1808 -778 -2276 -159 -94 -352 -167 -558 -210 -149 -32 -438
-44 -591 -24 -368 46 -720 208 -993 456 -117 106 -143 113 -209 51 l-32 -31 0
202 0 201 205 3 204 3 -39 -40 c-23 -23 -42 -55 -46 -74 -7 -31 -3 -37 72
-110 141 -135 359 -266 554 -331 334 -112 717 -110 1035 5 448 162 805 520
959 962 67 195 81 282 81 518 0 163 -4 229 -18 295 -27 128 -64 243 -114 355
-24 55 -47 105 -49 112 -4 8 25 12 101 15 101 3 108 4 128 29 12 15 26 23 30
19 4 -4 30 -62 58 -130z"/>
<path d="M2185 4249 c-45 -23 -357 -472 -474 -683 -132 -238 -188 -408 -177
-533 8 -105 23 -157 71 -258 84 -175 234 -301 431 -362 91 -28 276 -25 374 5
118 37 195 85 290 181 134 136 193 275 194 461 0 93 -4 116 -33 200 -74 216
-258 530 -505 859 -101 135 -124 153 -171 130z m87 -264 c201 -268 407 -625
459 -795 79 -261 -97 -559 -374 -631 -258 -68 -516 56 -630 303 -26 56 -50
186 -43 235 23 166 171 452 421 808 98 140 109 154 116 147 3 -4 26 -34 51
-67z"/>
<path d="M2505 3139 c-31 -18 -45 -40 -45 -72 0 -121 -116 -237 -237 -237 -41
0 -83 -37 -83 -73 0 -13 10 -37 22 -52 20 -26 24 -27 90 -23 182 13 335 167
354 357 5 46 3 60 -12 78 -23 27 -62 37 -89 22z"/>
<path d="M10209 5151 c-36 -35 -39 -43 -39 -93 0 -85 53 -138 137 -138 83 0
139 66 130 154 -4 41 -10 55 -41 83 -32 29 -42 33 -92 33 -52 0 -59 -3 -95
-39z"/>
<path d="M5230 4661 c-302 -43 -483 -227 -468 -478 6 -105 32 -159 115 -242
88 -87 178 -133 413 -211 205 -69 282 -104 340 -156 107 -97 87 -269 -42 -361
-99 -71 -243 -98 -377 -69 -128 27 -167 54 -297 200 -37 43 -44 46 -88 46 -39
0 -53 -5 -77 -29 -55 -56 -28 -142 79 -248 107 -107 263 -168 457 -180 355
-21 636 196 636 493 0 141 -59 248 -180 328 -85 57 -163 90 -384 165 -193 65
-240 87 -292 133 -51 44 -75 96 -75 163 0 67 17 109 61 153 54 55 109 77 224
92 144 18 265 -24 380 -131 61 -57 68 -61 102 -56 42 7 79 38 88 74 9 39 -37
125 -96 176 -122 107 -336 164 -519 138z"/>
<path d="M6273 4663 c-30 -6 -71 -56 -78 -96 -3 -18 -4 -512 -3 -1098 3 -1051
3 -1067 23 -1089 52 -59 130 -58 180 1 l25 31 0 395 0 395 58 -50 c185 -160
386 -230 627 -219 252 12 471 122 626 315 258 321 264 755 13 1082 -107 139
-249 239 -424 296 -79 26 -97 28 -250 29 -143 0 -176 -3 -243 -23 -127 -36
-236 -97 -349 -194 l-58 -49 0 97 c0 111 -18 154 -72 173 -32 11 -36 11 -75 4z
m971 -257 c204 -65 365 -222 427 -416 42 -132 35 -304 -17 -436 -71 -176 -243
-326 -428 -374 -97 -25 -225 -26 -315 -4 -216 53 -401 231 -464 443 -26 89
-28 262 -3 346 50 168 171 315 322 393 110 56 169 71 296 71 86 1 122 -4 182
-23z"/>
<path d="M8772 4645 c-72 -16 -198 -69 -280 -117 -31 -18 -100 -76 -152 -128
-109 -109 -161 -193 -212 -340 -32 -93 -32 -99 -32 -265 0 -159 2 -176 28
-255 99 -303 351 -533 652 -595 92 -19 258 -19 347 0 140 29 287 109 404 219
l63 58 0 -86 c0 -52 6 -100 14 -121 31 -72 134 -86 189 -25 l28 32 -3 466 c-4
447 -5 470 -26 537 -66 209 -191 382 -357 493 -82 54 -125 75 -225 107 -73 24
-105 28 -230 31 -101 3 -164 -1 -208 -11z m342 -235 c184 -47 329 -164 409
-331 53 -111 67 -169 67 -287 0 -112 -21 -196 -71 -292 -73 -142 -203 -255
-355 -312 -50 -19 -80 -22 -199 -22 -128 -1 -147 2 -220 27 -188 66 -332 210
-395 397 -28 81 -38 242 -21 332 7 35 32 105 57 156 129 267 435 407 728 332z"/>
<path d="M10228 4631 l-33 -29 -3 -792 -2 -792 34 -34 c38 -38 85 -45 135 -19
63 32 61 7 61 839 0 616 -3 763 -14 789 -29 71 -120 90 -178 38z"/>
<path d="M10822 4632 c-17 -16 -34 -40 -37 -53 -3 -13 -4 -372 -3 -797 l3
-774 33 -29 c54 -48 140 -37 174 24 10 16 14 133 18 452 l6 430 26 80 c53 157
184 314 323 387 105 54 159 70 273 77 80 6 108 12 130 28 58 43 60 139 4 184
-25 20 -35 21 -142 16 -217 -11 -404 -92 -557 -241 l-63 -60 0 107 c0 150 -28
197 -116 197 -32 0 -49 -7 -72 -28z"/>
<path d="M12068 4640 c-49 -38 -50 -44 -45 -561 4 -532 6 -555 69 -709 85
-207 227 -340 426 -400 64 -20 89 -22 205 -18 101 4 146 10 192 27 98 35 195
100 283 187 l82 83 0 -118 c0 -104 2 -121 21 -144 30 -39 85 -53 131 -34 77
32 73 -20 76 827 2 516 0 767 -8 792 -21 73 -95 107 -160 73 -55 -29 -55 -24
-60 -525 -6 -452 -6 -467 -29 -535 -66 -201 -197 -336 -380 -392 -57 -17 -212
-17 -277 1 -125 33 -221 116 -279 239 -61 129 -65 174 -65 677 0 484 -1 499
-51 534 -33 22 -100 21 -131 -4z"/>
<path d="M13929 4643 c-62 -38 -59 3 -59 -843 0 -857 -3 -817 66 -846 47 -20
95 -9 131 28 l28 29 5 562 5 562 33 67 c73 148 239 240 402 224 137 -14 261
-106 311 -231 l24 -60 5 -560 c4 -440 8 -565 18 -583 18 -31 77 -55 117 -48
30 6 60 30 81 66 5 8 11 267 14 575 l5 560 34 63 c43 78 104 134 196 178 90
43 167 52 255 30 121 -31 201 -96 254 -206 l31 -65 5 -565 c4 -417 8 -571 17
-586 13 -23 70 -54 98 -54 32 0 86 33 100 61 23 43 22 1066 -1 1177 -48 240
-218 416 -451 468 -198 44 -433 -29 -587 -182 l-61 -61 -69 74 c-81 87 -161
135 -271 163 -183 47 -340 9 -493 -120 l-72 -60 0 57 c0 113 -88 178 -171 126z"/>
<path d="M4816 2089 c-41 -35 -55 -84 -36 -129 15 -37 46 -57 112 -74 59 -15
75 -40 33 -50 -25 -6 -77 13 -90 34 -11 18 -54 11 -65 -10 -31 -57 85 -133
169 -110 62 16 92 48 98 101 7 64 -21 95 -107 118 -52 13 -65 20 -65 36 0 17
6 20 40 18 22 -1 54 -4 72 -8 26 -6 33 -3 42 14 25 46 -34 91 -118 91 -42 0
-56 -5 -85 -31z"/>
<path d="M5072 2108 c-18 -18 -14 -56 7 -68 11 -5 33 -10 50 -10 l31 0 0 -121
c0 -130 8 -159 43 -159 42 0 47 17 47 152 l0 128 31 0 c42 0 69 17 69 43 0 42
-17 47 -145 47 -81 0 -125 -4 -133 -12z"/>
<path d="M5453 2108 c-21 -28 -133 -298 -133 -321 0 -25 16 -37 52 -37 14 0
24 12 35 40 l16 40 61 0 61 0 17 -40 c13 -31 22 -40 40 -40 27 0 48 17 48 40
0 16 -117 297 -133 318 -5 6 -20 12 -32 12 -12 0 -27 -6 -32 -12z m44 -184
c-3 -3 -12 -4 -20 -2 -11 2 -12 9 -5 28 l10 25 11 -23 c5 -12 8 -25 4 -28z"/>
<path d="M5738 2104 c-56 -30 -76 -119 -38 -166 20 -27 48 -40 118 -58 46 -12
53 -24 22 -40 -25 -13 -57 -5 -87 22 -44 40 -102 2 -73 -49 22 -39 75 -67 129
-67 87 0 151 64 137 136 -9 47 -34 68 -108 87 -51 13 -63 20 -63 36 0 25 36
31 87 14 44 -14 68 -1 68 36 0 54 -126 85 -192 49z"/>
<path d="M6012 2108 c-8 -8 -12 -61 -12 -173 0 -112 4 -165 12 -173 18 -18 56
-14 68 7 5 11 10 85 10 170 0 123 -3 152 -16 165 -18 19 -45 21 -62 4z"/>
<path d="M6160 2101 c-15 -29 -13 -225 4 -264 51 -120 221 -120 272 0 9 21 14
71 14 142 0 115 -9 141 -49 141 -34 0 -41 -21 -41 -127 0 -56 -5 -113 -11
-127 -15 -33 -48 -40 -79 -17 -24 17 -25 24 -28 131 -1 63 -8 120 -14 127 -16
19 -56 16 -68 -6z"/>
<path d="M6526 2104 c-13 -13 -16 -42 -16 -165 0 -85 5 -159 10 -170 12 -22
52 -25 68 -6 6 7 12 50 14 96 l3 82 65 -88 c72 -99 76 -103 107 -103 36 0 43
30 43 189 0 158 -6 181 -49 181 -32 0 -46 -30 -51 -107 l-5 -74 -68 91 c-69
93 -90 105 -121 74z"/>
<path d="M7026 2104 c-13 -13 -16 -42 -16 -165 0 -85 5 -159 10 -170 12 -21
50 -25 68 -7 7 7 12 38 12 70 l0 58 40 0 c75 0 130 49 130 115 0 38 -26 83
-60 100 -40 21 -163 20 -184 -1z m149 -99 c0 -16 -8 -21 -37 -23 -35 -3 -38
-1 -38 23 0 24 3 26 38 23 29 -2 37 -7 37 -23z"/>
<path d="M7342 2108 c-8 -8 -12 -61 -12 -173 0 -112 4 -165 12 -173 8 -8 46
-12 105 -12 83 0 93 2 103 21 9 16 8 26 -5 45 -13 21 -23 24 -70 24 -52 0 -55
1 -55 25 0 22 4 25 39 25 36 0 71 19 71 38 0 4 -7 18 -16 30 -11 16 -25 22
-55 22 -35 0 -39 3 -39 25 0 24 3 25 54 25 45 0 58 4 70 22 20 28 20 33 0 52
-19 20 -183 23 -202 4z"/>
<path d="M7616 2098 c-13 -18 -16 -50 -16 -160 0 -161 7 -188 49 -188 16 0 33
6 38 13 4 6 10 47 13 90 l5 78 65 -88 c69 -93 101 -113 127 -77 16 22 18 305
3 335 -12 22 -52 25 -68 6 -6 -7 -12 -50 -14 -96 l-3 -83 -70 93 c-75 101
-101 117 -129 77z"/>
<path d="M8055 2103 c-46 -24 -66 -45 -86 -88 -48 -105 5 -228 114 -260 103
-31 211 29 224 124 7 51 -14 71 -76 71 -26 0 -55 -6 -65 -13 -24 -18 -17 -58
12 -73 31 -15 13 -27 -41 -27 -53 0 -97 45 -97 99 0 79 100 123 164 73 31 -24
53 -22 72 7 13 18 12 24 -8 49 -12 15 -36 34 -54 41 -44 18 -122 17 -159 -3z"/>
<path d="M8382 2108 c-8 -8 -12 -61 -12 -173 0 -112 4 -165 12 -173 15 -15 51
-15 66 0 15 15 17 310 2 339 -12 21 -50 25 -68 7z"/>
<path d="M8569 2097 c-46 -31 -68 -91 -48 -132 18 -38 69 -72 120 -80 22 -4
43 -13 46 -21 7 -18 4 -21 -28 -29 -19 -5 -34 0 -57 20 -44 37 -86 32 -90 -11
-6 -60 97 -116 176 -94 69 18 112 86 91 147 -12 38 -44 58 -119 74 -44 9 -51
14 -48 32 4 27 38 33 90 16 30 -10 40 -10 53 1 43 36 -24 100 -105 100 -32 0
-58 -7 -81 -23z"/>
<path d="M8841 2101 c-14 -26 -14 -306 -1 -332 14 -26 55 -24 74 3 21 29 23
279 3 318 -16 33 -61 39 -76 11z"/>
<path d="M9113 2112 c-15 -9 -143 -298 -143 -322 0 -23 20 -40 48 -40 18 0 27
9 40 40 l17 40 62 0 c61 0 61 0 73 -35 18 -55 90 -63 90 -10 0 26 -98 268
-126 313 -15 22 -39 28 -61 14z m37 -179 c0 -7 -7 -13 -15 -13 -16 0 -19 9 -9
35 5 13 8 14 15 3 5 -7 9 -19 9 -25z"/>
<path d="M9362 2108 c-8 -8 -12 -61 -12 -173 0 -170 4 -185 46 -185 32 0 38
15 44 105 l5 80 68 -93 c51 -69 73 -92 90 -92 43 0 47 15 47 185 0 170 -4 185
-46 185 -34 0 -43 -20 -46 -109 l-3 -82 -53 74 c-85 119 -108 137 -140 105z"/>
<path d="M9953 2108 c-17 -23 -133 -298 -133 -316 0 -25 20 -42 48 -42 18 0
27 9 40 40 l17 40 60 0 60 0 17 -40 c13 -31 22 -40 40 -40 28 0 48 17 48 41 0
19 -116 296 -132 317 -6 6 -21 12 -33 12 -12 0 -27 -6 -32 -12z m44 -184 c-3
-3 -12 -4 -20 -2 -11 2 -12 9 -5 28 l10 25 11 -23 c5 -12 8 -25 4 -28z"/>
<path d="M10209 2103 c-20 -23 -25 -288 -6 -323 16 -31 56 -39 74 -14 21 28
18 317 -3 338 -20 21 -48 20 -65 -1z"/>
<path d="M10376 2104 c-13 -13 -16 -42 -16 -165 0 -85 5 -159 10 -170 12 -21
50 -25 68 -7 7 7 12 38 12 71 0 37 4 57 11 55 5 -2 27 -33 48 -68 29 -51 43
-66 64 -68 20 -3 29 2 38 21 9 20 6 33 -15 75 l-26 51 25 37 c42 61 26 138
-35 169 -40 21 -163 20 -184 -1z m149 -99 c0 -16 -8 -21 -37 -23 -35 -3 -38
-1 -38 23 0 24 3 26 38 23 29 -2 37 -7 37 -23z"/>
<path d="M10841 2106 c-7 -8 -22 -82 -34 -165 -23 -162 -21 -183 23 -189 33
-5 42 9 54 85 l12 68 23 -60 c30 -76 51 -100 83 -92 19 5 31 23 53 79 l29 73
11 -65 c12 -78 19 -90 49 -90 49 0 51 18 29 187 -22 167 -32 190 -76 179 -20
-5 -32 -24 -63 -100 -21 -52 -41 -93 -45 -90 -4 2 -21 41 -39 86 -18 46 -40
89 -48 96 -21 16 -47 15 -61 -2z"/>
<path d="M11246 2104 c-13 -13 -16 -42 -16 -165 0 -159 7 -189 43 -189 49 0
52 9 55 170 3 126 1 155 -13 176 -18 28 -46 31 -69 8z"/>
<path d="M11418 2109 c-16 -9 -18 -28 -18 -172 0 -171 4 -187 45 -187 37 0 45
19 45 109 l0 86 71 -98 c53 -71 78 -97 93 -97 42 0 46 16 46 185 0 166 -4 185
-41 185 -37 0 -49 -28 -49 -112 l0 -80 -61 84 c-82 111 -93 119 -131 97z"/>
<path d="M11772 2108 c-19 -19 -16 -241 4 -284 21 -44 73 -76 127 -76 55 -1
96 19 124 61 21 31 23 45 23 160 0 130 -6 151 -41 151 -40 0 -49 -26 -49 -145
0 -106 -1 -115 -22 -129 -30 -21 -44 -20 -68 4 -17 17 -20 33 -20 126 0 58 -5
114 -10 125 -12 21 -50 25 -68 7z"/>
<path d="M12146 2105 c-9 -9 -16 -19 -16 -23 0 -4 -9 -73 -21 -155 -23 -159
-20 -177 26 -177 32 0 43 18 51 83 4 31 10 57 14 57 4 0 15 -21 25 -47 26 -71
42 -93 70 -93 28 0 32 5 66 90 l27 65 7 -60 c9 -75 20 -95 48 -95 56 1 57 8
32 200 -18 137 -31 170 -66 170 -24 0 -42 -27 -80 -124 l-33 -80 -28 64 c-49
113 -62 135 -84 138 -12 2 -29 -4 -38 -13z"/>
<path d="M12672 2108 c-19 -19 -16 -241 4 -284 46 -96 199 -103 254 -11 17 27
20 51 20 158 0 128 -6 149 -41 149 -40 0 -49 -26 -49 -145 0 -112 0 -115 -26
-132 -24 -15 -29 -15 -53 -2 -25 14 -26 18 -31 134 -3 66 -9 126 -13 133 -10
15 -49 16 -65 0z"/>
<path d="M13032 2108 c-17 -17 -17 -329 0 -346 15 -15 51 -15 66 0 7 7 12 44
12 96 l0 84 71 -96 c52 -71 76 -96 93 -96 42 0 46 15 46 185 0 166 -4 185 -41
185 -37 0 -49 -28 -49 -113 l0 -81 -66 89 c-36 50 -71 93 -78 97 -17 11 -41 9
-54 -4z"/>
<path d="M13372 2108 c-7 -7 -12 -21 -12 -33 0 -31 19 -45 62 -45 l38 0 0
-128 c0 -135 5 -152 47 -152 35 0 43 29 43 159 l0 121 33 0 c33 0 67 24 67 48
0 6 -7 18 -16 26 -12 13 -39 16 -133 16 -78 0 -121 -4 -129 -12z"/>
<path d="M13695 2103 c-14 -14 -16 -35 -13 -139 3 -106 6 -126 24 -151 68 -91
205 -87 255 7 16 28 19 57 19 155 0 127 -6 145 -45 145 -39 0 -45 -18 -45
-137 0 -100 -2 -115 -20 -133 -24 -24 -38 -25 -68 -4 -20 14 -22 23 -22 122 0
81 -4 113 -16 130 -18 26 -46 28 -69 5z"/>
<path d="M14060 2110 c-12 -7 -16 -39 -18 -157 -4 -174 3 -203 48 -203 35 0
50 26 50 89 0 72 21 68 76 -12 52 -76 78 -91 108 -62 9 9 16 20 16 24 0 5 -25
46 -55 92 l-54 84 44 45 c45 46 55 76 33 98 -23 23 -50 12 -107 -43 l-58 -56
-6 47 c-6 59 -36 80 -77 54z"/>
<path d="M14526 2104 c-13 -13 -16 -42 -16 -165 0 -85 5 -159 10 -170 14 -26
55 -24 74 3 9 13 16 43 16 72 0 60 9 54 54 -31 32 -60 62 -77 92 -53 20 18 17
41 -12 94 l-26 47 22 24 c48 51 32 148 -30 180 -40 21 -163 20 -184 -1z m149
-99 c0 -15 -8 -21 -32 -23 -30 -3 -33 -1 -33 23 0 24 3 26 33 23 24 -2 32 -8
32 -23z"/>
<path d="M14845 2096 c-23 -35 -18 -321 5 -336 8 -6 57 -9 109 -8 87 3 94 5
102 26 14 36 -20 62 -81 62 -46 0 -50 2 -50 24 0 22 5 25 41 28 54 4 77 33 53
66 -11 16 -25 22 -55 22 -35 0 -39 3 -39 25 0 22 4 24 56 27 44 2 60 8 70 23
12 18 11 24 -2 43 -14 20 -24 22 -104 22 -84 0 -91 -2 -105 -24z"/>
<path d="M15120 2101 c-5 -11 -10 -85 -10 -168 0 -163 7 -188 50 -181 31 4 50
40 50 96 0 41 1 42 33 42 39 0 57 15 57 47 0 25 -26 43 -64 43 -21 0 -26 5
-26 25 0 23 3 25 48 25 69 0 103 38 66 74 -12 12 -37 16 -104 16 -78 0 -91 -2
-100 -19z"/>
<path d="M15390 2101 c-15 -29 -13 -324 2 -339 15 -15 51 -15 66 0 17 17 17
329 0 346 -18 18 -56 14 -68 -7z"/>
<path d="M15562 2108 c-17 -17 -17 -329 0 -346 7 -7 44 -12 98 -12 88 0 110 8
110 41 0 32 -29 49 -81 49 l-49 0 0 124 c0 100 -3 128 -16 140 -18 19 -45 21
-62 4z"/>
<path d="M15820 2101 c-5 -11 -10 -84 -10 -166 0 -82 5 -155 10 -166 9 -17 22
-19 105 -19 85 0 95 2 105 21 9 16 8 26 -5 45 -13 21 -23 24 -70 24 l-55 0 0
128 c0 86 -4 132 -12 140 -18 18 -56 14 -68 -7z"/>
</g>
</svg>
